<svg width="24" height="23" viewBox="0 0 24 23" fill="none" xmlns="http://www.w3.org/2000/svg">
<path d="M13.9163 1.91602H6.24967C5.74134 1.91602 5.25383 2.11795 4.89439 2.47739C4.53494 2.83684 4.33301 3.32435 4.33301 3.83268V19.166C4.33301 19.6743 4.53494 20.1619 4.89439 20.5213C5.25383 20.8807 5.74134 21.0827 6.24967 21.0827H17.7497C18.258 21.0827 18.7455 20.8807 19.105 20.5213C19.4644 20.1619 19.6663 19.6743 19.6663 19.166V7.66602L13.9163 1.91602Z" stroke="#033F63" stroke-width="1.5" stroke-linecap="round" stroke-linejoin="round"/>
<path d="M15.8337 16.291H8.16699" stroke="#033F63" stroke-width="1.5" stroke-linecap="round" stroke-linejoin="round"/>
<path d="M15.8337 12.459H8.16699" stroke="#033F63" stroke-width="1.5" stroke-linecap="round" stroke-linejoin="round"/>
<path d="M10.0837 8.625H9.12533H8.16699" stroke="#033F63" stroke-width="1.5" stroke-linecap="round" stroke-linejoin="round"/>
<path d="M13.917 1.91602V7.66602H19.667" stroke="#033F63" stroke-width="1.5" stroke-linecap="round" stroke-linejoin="round"/>
</svg>
