<svg width="24" height="23" viewBox="0 0 24 23" fill="none" xmlns="http://www.w3.org/2000/svg">
<path d="M6.25 1.91602L3.375 5.74935V19.166C3.375 19.6743 3.57693 20.1619 3.93638 20.5213C4.29582 20.8807 4.78334 21.0827 5.29167 21.0827H18.7083C19.2167 21.0827 19.7042 20.8807 20.0636 20.5213C20.4231 20.1619 20.625 19.6743 20.625 19.166V5.74935L17.75 1.91602H6.25Z" stroke="#033F63" stroke-width="1.5" stroke-linecap="round" stroke-linejoin="round"/>
<path d="M15.8337 9.58398C15.8337 10.6006 15.4298 11.5757 14.7109 12.2946C13.992 13.0135 13.017 13.4173 12.0003 13.4173C10.9837 13.4173 10.0086 13.0135 9.28975 12.2946C8.57086 11.5757 8.16699 10.6006 8.16699 9.58398" stroke="#033F63" stroke-width="1.5" stroke-linecap="round" stroke-linejoin="round"/>
<path d="M3.375 5.75H20.625" stroke="#033F63" stroke-width="1.5" stroke-linecap="round" stroke-linejoin="round"/>
</svg>
