<svg width="24" height="23" viewBox="0 0 24 23" fill="none" xmlns="http://www.w3.org/2000/svg">
<g clip-path="url(#clip0_2018_1057)">
<path d="M22.542 20.1254V18.2088C22.5414 17.3594 22.2587 16.5343 21.7383 15.8631C21.2179 15.1918 20.4894 14.7123 19.667 14.5" stroke="#033F63" stroke-width="1.5" stroke-linecap="round" stroke-linejoin="round"/>
<path d="M16.7913 20.125V18.2083C16.7913 17.1917 16.3875 16.2166 15.6686 15.4978C14.9497 14.7789 13.9747 14.375 12.958 14.375H5.29134C4.27468 14.375 3.29965 14.7789 2.58077 15.4978C1.86188 16.2166 1.45801 17.1917 1.45801 18.2083V20.125" stroke="#033F63" stroke-width="1.5" stroke-linecap="round" stroke-linejoin="round"/>
<path d="M15.833 3C16.6576 3.21112 17.3884 3.69067 17.9103 4.36305C18.4322 5.03542 18.7155 5.86238 18.7155 6.71354C18.7155 7.56471 18.4322 8.39166 17.9103 9.06404C17.3884 9.73641 16.6576 10.216 15.833 10.4271" stroke="#033F63" stroke-width="1.5" stroke-linecap="round" stroke-linejoin="round"/>
<path d="M9.12533 10.5417C11.2424 10.5417 12.9587 8.82543 12.9587 6.70833C12.9587 4.59124 11.2424 2.875 9.12533 2.875C7.00823 2.875 5.29199 4.59124 5.29199 6.70833C5.29199 8.82543 7.00823 10.5417 9.12533 10.5417Z" stroke="#033F63" stroke-width="1.5" stroke-linecap="round" stroke-linejoin="round"/>
</g>
<defs>
<clipPath id="clip0_2018_1057">
<rect width="23" height="23" fill="white" transform="translate(0.5)"/>
</clipPath>
</defs>
</svg>
