<svg width="734" height="375" viewBox="0 0 734 375" fill="none" xmlns="http://www.w3.org/2000/svg">
<path d="M733.806 330.736C733.806 336.496 732.75 341.488 730.638 345.712C728.526 349.936 725.358 353.2 721.134 355.504C716.974 357.808 711.726 358.96 705.39 358.96C696.302 358.96 689.358 356.56 684.558 351.76C679.758 346.896 677.358 340.016 677.358 331.12V289.456H697.038V329.68C697.038 334.544 697.774 338.064 699.246 340.24C700.718 342.416 702.83 343.504 705.582 343.504C707.63 343.504 709.294 343.024 710.574 342.064C711.854 341.104 712.782 339.6 713.358 337.552C713.934 335.504 714.222 332.848 714.222 329.584V289.456H733.806V330.736Z" fill="white"/>
<path d="M666.991 323.632C666.991 328.944 666.383 333.776 665.167 338.128C664.015 342.416 662.159 346.128 659.599 349.264C657.103 352.4 653.839 354.8 649.807 356.464C645.839 358.128 641.007 358.96 635.311 358.96C629.743 358.96 624.975 358.128 621.007 356.464C617.039 354.8 613.775 352.4 611.215 349.264C608.655 346.128 606.735 342.416 605.455 338.128C604.239 333.776 603.631 328.912 603.631 323.536C603.631 316.432 604.751 310.256 606.991 305.008C609.231 299.696 612.687 295.6 617.359 292.72C622.031 289.84 628.047 288.4 635.407 288.4C642.959 288.4 649.039 289.872 653.647 292.816C658.319 295.696 661.711 299.792 663.823 305.104C665.935 310.352 666.991 316.528 666.991 323.632ZM624.175 323.632C624.175 327.728 624.527 331.28 625.231 334.288C625.999 337.232 627.215 339.504 628.879 341.104C630.543 342.704 632.687 343.504 635.311 343.504C638.127 343.504 640.335 342.704 641.935 341.104C643.535 339.504 644.687 337.232 645.391 334.288C646.095 331.28 646.447 327.728 646.447 323.632C646.447 317.424 645.615 312.528 643.951 308.944C642.351 305.36 639.503 303.568 635.407 303.568C632.655 303.568 630.447 304.4 628.783 306.064C627.119 307.664 625.935 309.968 625.231 312.976C624.527 315.92 624.175 319.472 624.175 323.632Z" fill="white"/>
<path d="M570.32 314.896L580.112 289.456H601.232L580.112 331.216V358H560.432V331.792L539.312 289.456H560.625L570.32 314.896Z" fill="white"/>
<path d="M497.026 292.691L497.031 292.693C500.841 294.168 503.635 296.322 505.485 299.127L505.485 299.127L505.491 299.135C507.337 301.875 508.296 305.379 508.296 309.712C508.296 312.371 507.925 314.79 507.195 316.98L507.191 316.992L507.188 317.004C506.523 319.179 505.469 321.104 504.025 322.789L504.018 322.797L504.011 322.805C502.629 324.488 500.81 325.981 498.53 327.274L497.624 327.789L498.175 328.673L515.846 357H495.99L483.596 332.587L483.318 332.04H482.704H479.92H478.92V333.04V357H461.336V290.456H482.8C488.544 290.456 493.274 291.215 497.026 292.691ZM479.92 302.472H478.92V303.472V319.12V320.12H479.92H482.512C483.762 320.12 484.995 319.825 486.202 319.257L486.223 319.247L486.244 319.236C487.518 318.561 488.542 317.523 489.326 316.172C490.215 314.686 490.616 312.794 490.616 310.576C490.616 309.012 490.379 307.623 489.864 306.441C489.339 305.17 488.498 304.169 487.346 303.479C486.173 302.775 484.659 302.472 482.896 302.472H479.92Z" stroke="white" stroke-width="2"/>
<path d="M446.797 337.859L446.796 337.859L446.794 337.869C445.675 342.034 443.879 345.615 441.417 348.632L441.417 348.632L441.409 348.641C439.028 351.633 435.907 353.935 432.018 355.54L432.013 355.542C428.2 357.141 423.508 357.96 417.904 357.96C412.431 357.96 407.802 357.142 403.986 355.542C400.16 353.937 397.032 351.633 394.582 348.632C392.116 345.61 390.255 342.022 389.008 337.851C387.823 333.603 387.224 328.834 387.224 323.536C387.224 316.535 388.328 310.498 390.503 305.401L390.505 305.397C392.669 300.266 395.991 296.336 400.476 293.571C404.945 290.816 410.764 289.4 418 289.4C425.431 289.4 431.304 290.85 435.701 293.659L435.708 293.663L435.715 293.667C440.196 296.43 443.45 300.353 445.486 305.474L445.488 305.477C447.542 310.581 448.584 316.624 448.584 323.632C448.584 328.869 447.984 333.608 446.797 337.859ZM406.85 334.516L406.853 334.528L406.856 334.541C407.656 337.608 408.946 340.063 410.779 341.825C412.655 343.629 415.059 344.504 417.904 344.504C420.916 344.504 423.404 343.642 425.235 341.811C427.002 340.044 428.223 337.585 428.956 334.521L428.957 334.516C429.683 331.414 430.04 327.782 430.04 323.632C430.04 317.357 429.202 312.299 427.454 308.53C426.587 306.591 425.356 305.083 423.74 304.066C422.125 303.049 420.195 302.568 418 302.568C415.035 302.568 412.558 303.472 410.675 305.35C408.837 307.121 407.583 309.617 406.85 312.746C406.123 315.788 405.768 319.422 405.768 323.632C405.768 327.782 406.124 331.414 406.85 334.516Z" stroke="white" stroke-width="2"/>
<path d="M359.348 318.392H376.396V331.272H359.348H358.348V332.272V357H341.148V290.456H377.932V303.336H359.348H358.348V304.336V317.392V318.392H359.348Z" stroke="white" stroke-width="2"/>
<path d="M287.357 343.928H305.653V357H268.773V290.456H305.653V303.336H287.357H286.357V304.336V315.088V316.088H287.357H304.213V328.968H287.357H286.357V329.968V342.928V343.928H287.357Z" stroke="white" stroke-width="2"/>
<path d="M243.299 304.624V357H225.715V304.624V303.624H224.715H211.027V290.456H257.987V303.624H244.299H243.299V304.624Z" stroke="white" stroke-width="2"/>
<path d="M203.047 337.859L203.046 337.859L203.044 337.869C201.925 342.034 200.129 345.615 197.667 348.632L197.667 348.632L197.659 348.641C195.278 351.633 192.157 353.935 188.268 355.54L188.263 355.542C184.45 357.141 179.758 357.96 174.154 357.96C168.681 357.96 164.052 357.142 160.236 355.542C156.41 353.937 153.282 351.633 150.832 348.632C148.366 345.61 146.505 342.022 145.258 337.851C144.073 333.603 143.474 328.834 143.474 323.536C143.474 316.535 144.578 310.498 146.753 305.401L146.755 305.397C148.919 300.266 152.241 296.336 156.726 293.571C161.195 290.816 167.014 289.4 174.25 289.4C181.681 289.4 187.554 290.85 191.951 293.659L191.958 293.663L191.965 293.667C196.446 296.43 199.7 300.353 201.736 305.474L201.738 305.477C203.792 310.581 204.834 316.624 204.834 323.632C204.834 328.869 204.234 333.608 203.047 337.859ZM163.1 334.516L163.103 334.528L163.106 334.541C163.906 337.608 165.196 340.063 167.029 341.825C168.905 343.629 171.309 344.504 174.154 344.504C177.166 344.504 179.654 343.642 181.485 341.811C183.252 340.044 184.473 337.585 185.206 334.521L185.207 334.516C185.933 331.414 186.29 327.782 186.29 323.632C186.29 317.357 185.452 312.299 183.704 308.53C182.837 306.591 181.606 305.083 179.99 304.066C178.375 303.049 176.445 302.568 174.25 302.568C171.285 302.568 168.808 303.472 166.925 305.35C165.087 307.121 163.833 309.617 163.1 312.746C162.373 315.788 162.018 319.422 162.018 323.632C162.018 327.782 162.374 331.414 163.1 334.516Z" stroke="white" stroke-width="2"/>
<path d="M119.156 354.626L119.15 354.629C115.179 356.828 110.111 357.96 103.89 357.96C94.9764 357.96 88.3234 355.61 83.7677 351.055C79.2048 346.43 76.8584 339.834 76.8584 331.12V290.456H94.5384V329.68C94.5384 334.598 95.2736 338.369 96.9181 340.8C98.5864 343.267 101.017 344.504 104.082 344.504C106.286 344.504 108.178 343.986 109.674 342.864C111.18 341.735 112.205 340.013 112.821 337.823C113.431 335.653 113.722 332.896 113.722 329.584V290.456H131.306V330.736C131.306 336.374 130.273 341.207 128.244 345.265C126.225 349.303 123.204 352.418 119.156 354.626Z" stroke="white" stroke-width="2"/>
<path d="M52.0408 355.656L66.4531 373.32H45.0939L35.1189 358.404L34.3116 358.944L34.3116 357.96H34.3116H34.3115H34.3114H34.3113H34.3113H34.3112H34.3111H34.311H34.3109H34.3109H34.3108H34.3107H34.3106H34.3106H34.3105H34.3104H34.3103H34.3102H34.3101H34.31H34.3099H34.3098H34.3097H34.3096H34.3095H34.3094H34.3093H34.3092H34.3091H34.3089H34.3088H34.3087H34.3085H34.3084H34.3083H34.3081H34.308H34.3078H34.3077H34.3075H34.3074H34.3072H34.307H34.3069H34.3067H34.3065H34.3064H34.3062H34.306H34.3058H34.3056H34.3054H34.3053H34.3051H34.3049H34.3047H34.3045H34.3042H34.304H34.3038H34.3036H34.3034H34.3032H34.3029H34.3027H34.3025H34.3023H34.302H34.3018H34.3015H34.3013H34.3011H34.3008H34.3005H34.3003H34.3H34.2998H34.2995H34.2992H34.299H34.2987H34.2984H34.2981H34.2979H34.2976H34.2973H34.297H34.2967H34.2964H34.2961H34.2958H34.2955H34.2952H34.2949H34.2945H34.2942H34.2939H34.2936H34.2933H34.2929H34.2926H34.2923H34.2919H34.2916H34.2912H34.2909H34.2905H34.2902H34.2898H34.2895H34.2891H34.2887H34.2884H34.288H34.2876H34.2873H34.2869H34.2865H34.2861H34.2857H34.2853H34.2849H34.2845H34.2841H34.2837H34.2833H34.2829H34.2825H34.2821H34.2817H34.2813H34.2808H34.2804H34.28H34.2795H34.2791H34.2787H34.2782H34.2778H34.2773H34.2769H34.2764H34.276H34.2755H34.2751H34.2746H34.2741H34.2737H34.2732H34.2727H34.2722H34.2718H34.2713H34.2708H34.2703H34.2698H34.2693H34.2688H34.2683H34.2678H34.2673H34.2668H34.2663H34.2657H34.2652H34.2647H34.2642H34.2636H34.2631H34.2626H34.262H34.2615H34.261H34.2604H34.2599H34.2593H34.2588H34.2582H34.2576H34.2571H34.2565H34.2559H34.2554H34.2548H34.2542H34.2536H34.253H34.2525H34.2519H34.2513H34.2507H34.2501H34.2495H34.2489H34.2483H34.2476H34.247H34.2464H34.2458H34.2452H34.2445H34.2439H34.2433H34.2427H34.242H34.2414H34.2407H34.2401H34.2394H34.2388H34.2381H34.2375H34.2368H34.2362H34.2355H34.2348H34.2341H34.2335H34.2328H34.2321H34.2314H34.2307H34.23H34.2294H34.2287H34.228H34.2273H34.2266H34.2258H34.2251H34.2244H34.2237H34.223H34.2223H34.2215H34.2208H34.2201H34.2193H34.2186H34.2179H34.2171H34.2164H34.2156H34.2149H34.2141H34.2134H34.2126H34.2118H34.2111H34.2103H34.2095H34.2088H34.208H34.2072H34.2064H34.2056H34.2048H34.2041H34.2033H34.2025H34.2017H34.2009H34.2H34.1992H34.1984H34.1976H34.1968H34.196H34.1951H34.1943H34.1935H34.1926H34.1918H34.191H34.1901H34.1893H34.1884H34.1876H34.1867H34.1859H34.185H34.1842H34.1833H34.1824H34.1815H34.1807H34.1798H34.1789H34.178H34.1771H34.1763H34.1754H34.1745H34.1736H34.1727H34.1718H34.1709H34.17H34.169H34.1681H34.1672H34.1663H34.1654H34.1644H34.1635H34.1626H34.1616H34.1607H34.1598H34.1588H34.1579H34.1569H34.156H34.155H34.154H34.1531H34.1521H34.1511H34.1502H34.1492H34.1482H34.1472H34.1463H34.1453H34.1443H34.1433H34.1423H34.1413H34.1403H34.1393H34.1383H34.1373H34.1363H34.1353H34.1342H34.1332H34.1322H34.1312H34.1301H34.1291H34.1281H34.127H34.126H34.1249H34.1239H34.1228H34.1218H34.1207H34.1197H34.1186H34.1175H34.1165H34.1154H34.1143H34.1133H34.1122H34.1111H34.11H34.1089H34.1078H34.1067H34.1056H34.1045H34.1034H34.1023H34.1012H34.1001H34.099H34.0979H34.0968H34.0956H34.0945H34.0934H34.0923H34.0912H34.09H34.0889H34.0878H34.0867H34.0856H34.0845H34.0834H34.0823H34.0813H34.0802H34.0791H34.078H34.0769H34.0759H34.0748H34.0737H34.0727H34.0716H34.0705H34.0695H34.0684H34.0674H34.0663H34.0653H34.0642H34.0632H34.0622H34.0611H34.0601H34.0591H34.0581H34.057H34.056H34.055H34.054H34.053H34.052H34.051H34.05H34.049H34.048H34.047H34.046H34.045H34.044H34.043H34.0421H34.0411H34.0401H34.0392H34.0382H34.0372H34.0363H34.0353H34.0344H34.0334H34.0325H34.0315H34.0306H34.0296H34.0287H34.0278H34.0268H34.0259H34.025H34.0241H34.0231H34.0222H34.0213H34.0204H34.0195H34.0186H34.0177H34.0168H34.0159H34.015H34.0141H34.0132H34.0123H34.0115H34.0106H34.0097H34.0088H34.008H34.0071H34.0062H34.0054H34.0045H34.0037H34.0028H34.002H34.0011H34.0003H33.9995H33.9986H33.9978H33.997H33.9961H33.9953H33.9945H33.9937H33.9928H33.992H33.9912H33.9904H33.9896H33.9888H33.988H33.9872H33.9864H33.9856H33.9848H33.9841H33.9833H33.9825H33.9817H33.981H33.9802H33.9794H33.9787H33.9779H33.9771H33.9764H33.9756H33.9749H33.9741H33.9734H33.9727H33.9719H33.9712H33.9705H33.9697H33.969H33.9683H33.9676H33.9668H33.9661H33.9654H33.9647H33.964H33.9633H33.9626H33.9619H33.9612H33.9605H33.9598H33.9592H33.9585H33.9578H33.9571H33.9565H33.9558H33.9551H33.9545H33.9538H33.9531H33.9525H33.9518H33.9512H33.9505H33.9499H33.9492H33.9486H33.948H33.9473H33.9467H33.9461H33.9455H33.9448H33.9442H33.9436H33.943H33.9424H33.9418H33.9412H33.9406H33.94H33.9394H33.9388H33.9382H33.9376H33.9371H33.9365H33.9359H33.9353H33.9348H33.9342H33.9336H33.9331H33.9325H33.932H33.9314H33.9309H33.9303H33.9298H33.9292H33.9287H33.9282H33.9276H33.9271H33.9266H33.926H33.9255H33.925H33.9245H33.924H33.9235H33.923H33.9225H33.922H33.9215H33.921H33.9205H33.92H33.9195H33.919H33.9186H33.9181H33.9176H33.9171H33.9167H33.9162H33.9157H33.9153H33.9148H33.9144H33.9139H33.9135H33.913H33.9126H33.9122H33.9117H33.9113H33.9109H33.9104H33.91H33.9096H33.9092H33.9088H33.9083H33.9079H33.9075H33.9071H33.9067H33.9063H33.9059H33.9055H33.9052H33.9048H33.9044H33.904H33.9036C28.4986 357.96 23.8668 357.143 19.9834 355.541C16.1581 353.936 13.0315 351.632 10.5823 348.632C8.11578 345.61 6.25462 342.022 5.00838 337.851C3.82254 333.603 3.22363 328.834 3.22363 323.536C3.22363 316.535 4.3276 310.498 6.50337 305.401L6.50506 305.397C8.66853 300.266 11.9908 296.336 16.4764 293.571C20.9455 290.816 26.7636 289.4 33.9996 289.4C41.4309 289.4 47.3043 290.85 51.7012 293.659L51.708 293.663L51.7149 293.667C56.1957 296.43 59.4503 300.353 61.4864 305.474L61.4879 305.477C63.5417 310.581 64.5836 316.624 64.5836 323.632C64.5836 328.309 64.1728 332.658 63.3559 336.68C62.5446 340.611 61.2085 344.048 59.3596 347.006L59.3556 347.013L59.3517 347.019C57.5777 349.955 55.2258 352.338 52.2856 354.176L51.3237 354.777L52.0408 355.656ZM22.8499 334.516L22.8528 334.528L22.856 334.541C23.654 337.599 24.9067 340.049 26.6685 341.811L26.6755 341.818L26.6825 341.825C28.5633 343.633 31.0028 344.504 33.9036 344.504C36.9162 344.504 39.4037 343.642 41.2347 341.811C43.0024 340.044 44.2233 337.585 44.9562 334.521L44.9573 334.516C45.6834 331.414 46.0396 327.782 46.0396 323.632C46.0396 317.356 45.2337 312.302 43.5528 308.536C42.6846 306.592 41.4428 305.08 39.8079 304.063C38.1769 303.048 36.2241 302.568 33.9996 302.568C31.0345 302.568 28.5579 303.472 26.6755 305.35C24.8368 307.121 23.583 309.617 22.8505 312.746C22.1233 315.788 21.7676 319.422 21.7676 323.632C21.7676 327.782 22.1239 331.414 22.8499 334.516Z" stroke="white" stroke-width="2"/>
<path d="M548.341 262H509.461V193.456H548.341V208.336H529.045V219.088H546.901V233.968H529.045V246.928H548.341V262Z" fill="white"/>
<path d="M480.64 207.664C478.592 207.664 476.768 208.144 475.168 209.104C473.632 210 472.32 211.344 471.232 213.136C470.208 214.864 469.44 216.976 468.928 219.472C468.416 221.968 468.16 224.816 468.16 228.016C468.16 232.304 468.672 235.92 469.696 238.864C470.784 241.808 472.352 244.048 474.4 245.584C476.512 247.056 479.104 247.792 482.176 247.792C484.992 247.792 487.648 247.376 490.144 246.544C492.704 245.712 495.168 244.688 497.536 243.472V259.12C494.72 260.464 491.744 261.424 488.608 262C485.472 262.64 482.272 262.96 479.008 262.96C471.776 262.96 465.888 261.488 461.344 258.544C456.8 255.6 453.472 251.504 451.36 246.256C449.248 240.944 448.192 234.832 448.192 227.92C448.192 222.736 448.864 218 450.208 213.712C451.616 209.36 453.664 205.616 456.352 202.48C459.104 199.28 462.432 196.816 466.336 195.088C470.304 193.36 474.848 192.496 479.968 192.496C483.04 192.496 486.464 192.912 490.24 193.744C494.016 194.576 497.44 195.76 500.512 197.296L494.656 211.888C492.48 210.672 490.272 209.68 488.032 208.912C485.856 208.08 483.392 207.664 480.64 207.664Z" fill="white"/>
<path d="M437.642 262H411.722L390.698 213.712H390.314C390.314 213.712 390.346 214.288 390.41 215.44C390.474 216.528 390.57 217.968 390.698 219.76C390.826 221.552 390.922 223.472 390.986 225.52C391.114 227.504 391.178 229.36 391.178 231.088V262H373.898V193.456H399.722L420.65 241.072H420.938C420.938 241.072 420.906 240.528 420.842 239.44C420.778 238.352 420.682 236.944 420.554 235.216C420.49 233.488 420.426 231.664 420.362 229.744C420.298 227.824 420.266 226.064 420.266 224.464V193.456H437.642V262Z" fill="white"/>
<path d="M346.138 262L343.834 249.136H324.346L321.85 262H300.25L320.314 193.168H347.194L367.546 262H346.138ZM337.402 222.544C337.082 221.008 336.698 219.28 336.25 217.36C335.802 215.44 335.354 213.456 334.906 211.408C334.522 209.296 334.202 207.312 333.946 205.456C333.69 207.312 333.37 209.264 332.986 211.312C332.602 213.36 332.218 215.344 331.834 217.264C331.45 219.184 331.066 220.912 330.682 222.448L327.994 233.968H340.09L337.402 222.544Z" fill="white"/>
<path d="M267.175 193.456C272.999 193.456 277.863 194.224 281.767 195.76C285.735 197.296 288.711 199.568 290.695 202.576C292.679 205.52 293.671 209.232 293.671 213.712C293.671 216.464 293.287 218.992 292.519 221.296C291.815 223.6 290.695 225.648 289.159 227.44C287.687 229.232 285.767 230.8 283.399 232.144L302.023 262H279.751L267.079 237.04H264.295V262H244.711V193.456H267.175ZM267.271 207.472H264.295V223.12H266.887C267.975 223.12 269.063 222.864 270.151 222.352C271.239 221.776 272.135 220.88 272.839 219.664C273.607 218.384 273.991 216.688 273.991 214.576C273.991 213.104 273.767 211.856 273.319 210.832C272.871 209.744 272.167 208.912 271.207 208.336C270.247 207.76 268.935 207.472 267.271 207.472Z" fill="white"/>
<path d="M232.431 234.736C232.431 240.496 231.375 245.488 229.263 249.712C227.151 253.936 223.983 257.2 219.759 259.504C215.599 261.808 210.351 262.96 204.015 262.96C194.927 262.96 187.983 260.56 183.183 255.76C178.383 250.896 175.983 244.016 175.983 235.12V193.456H195.663V233.68C195.663 238.544 196.399 242.064 197.871 244.24C199.343 246.416 201.455 247.504 204.207 247.504C206.255 247.504 207.919 247.024 209.199 246.064C210.479 245.104 211.407 243.6 211.983 241.552C212.559 239.504 212.847 236.848 212.847 233.584V193.456H232.431V234.736Z" fill="white"/>
<path d="M167.375 241.168C167.375 244.88 166.511 248.4 164.783 251.728C163.119 255.056 160.367 257.776 156.527 259.888C152.687 261.936 147.599 262.96 141.263 262.96C137.935 262.96 135.119 262.8 132.815 262.48C130.575 262.224 128.527 261.776 126.671 261.136C124.815 260.496 122.767 259.664 120.527 258.64V242.128C124.239 243.984 127.951 245.424 131.663 246.448C135.375 247.408 138.575 247.888 141.263 247.888C142.671 247.888 143.855 247.664 144.815 247.216C145.775 246.768 146.479 246.16 146.927 245.392C147.439 244.624 147.695 243.76 147.695 242.8C147.695 241.584 147.407 240.56 146.831 239.728C146.255 238.896 145.167 238.032 143.567 237.136C141.967 236.24 139.631 235.152 136.559 233.872C133.679 232.656 131.215 231.408 129.167 230.128C127.183 228.848 125.583 227.408 124.367 225.808C123.151 224.208 122.255 222.352 121.679 220.24C121.103 218.064 120.815 215.504 120.815 212.56C120.815 208.144 121.903 204.464 124.079 201.52C126.319 198.512 129.359 196.272 133.199 194.8C137.039 193.264 141.455 192.496 146.447 192.496C151.183 192.496 155.311 193.008 158.831 194.032C162.415 194.992 165.327 196.112 167.567 197.392L161.711 211.696C159.151 210.352 156.431 209.296 153.551 208.528C150.671 207.696 148.111 207.28 145.871 207.28C144.527 207.28 143.439 207.472 142.607 207.856C141.775 208.24 141.167 208.784 140.783 209.488C140.399 210.128 140.207 210.864 140.207 211.696C140.207 212.784 140.559 213.744 141.263 214.576C142.031 215.408 143.343 216.336 145.199 217.36C147.119 218.32 149.775 219.632 153.167 221.296C156.239 222.704 158.831 224.272 160.943 226C163.055 227.728 164.655 229.808 165.743 232.24C166.831 234.608 167.375 237.584 167.375 241.168Z" fill="white"/>
<path d="M110.361 262H84.4412L63.4172 213.712H63.0332C63.0332 213.712 63.0652 214.288 63.1292 215.44C63.1932 216.528 63.2892 217.968 63.4172 219.76C63.5452 221.552 63.6412 223.472 63.7052 225.52C63.8332 227.504 63.8972 229.36 63.8972 231.088V262H46.6172V193.456H72.4412L93.3692 241.072H93.6572C93.6572 241.072 93.6252 240.528 93.5612 239.44C93.4972 238.352 93.4012 236.944 93.2732 235.216C93.2092 233.488 93.1452 231.664 93.0812 229.744C93.0172 227.824 92.9852 226.064 92.9852 224.464V193.456H110.361V262Z" fill="white"/>
<path d="M37.072 262H1.16797V251.44L9.32797 248.176V207.184L1.16797 204.016V193.456H37.072V204.016L29.008 207.184V248.176L37.072 251.44V262Z" fill="white"/>
<path d="M393.549 166H373.965V112.624H359.277V97.4561H408.237V112.624H393.549V166Z" fill="white"/>
<path d="M354.125 145.168C354.125 148.88 353.261 152.4 351.533 155.728C349.869 159.056 347.117 161.776 343.277 163.888C339.437 165.936 334.349 166.96 328.013 166.96C324.685 166.96 321.869 166.8 319.565 166.48C317.325 166.224 315.277 165.776 313.421 165.136C311.565 164.496 309.517 163.664 307.277 162.64V146.128C310.989 147.984 314.701 149.424 318.413 150.448C322.125 151.408 325.325 151.888 328.013 151.888C329.421 151.888 330.605 151.664 331.565 151.216C332.525 150.768 333.229 150.16 333.677 149.392C334.189 148.624 334.445 147.76 334.445 146.8C334.445 145.584 334.157 144.56 333.581 143.728C333.005 142.896 331.917 142.032 330.317 141.136C328.717 140.24 326.381 139.152 323.309 137.872C320.429 136.656 317.965 135.408 315.917 134.128C313.933 132.848 312.333 131.408 311.117 129.808C309.901 128.208 309.005 126.352 308.429 124.24C307.853 122.064 307.565 119.504 307.565 116.56C307.565 112.144 308.653 108.464 310.829 105.52C313.069 102.512 316.109 100.272 319.949 98.8001C323.789 97.2641 328.205 96.4961 333.197 96.4961C337.933 96.4961 342.061 97.0081 345.581 98.0321C349.165 98.9921 352.077 100.112 354.317 101.392L348.461 115.696C345.901 114.352 343.181 113.296 340.301 112.528C337.421 111.696 334.861 111.28 332.621 111.28C331.277 111.28 330.189 111.472 329.357 111.856C328.525 112.24 327.917 112.784 327.533 113.488C327.149 114.128 326.957 114.864 326.957 115.696C326.957 116.784 327.309 117.744 328.013 118.576C328.781 119.408 330.093 120.336 331.949 121.36C333.869 122.32 336.525 123.632 339.917 125.296C342.989 126.704 345.581 128.272 347.693 130C349.805 131.728 351.405 133.808 352.493 136.24C353.581 138.608 354.125 141.584 354.125 145.168Z" fill="white"/>
<path d="M299.716 166H260.836V97.4561H299.716V112.336H280.42V123.088H298.276V137.968H280.42V150.928H299.716V166Z" fill="white"/>
<path d="M223.706 97.4561C230.17 97.4561 235.29 98.1281 239.066 99.4721C242.842 100.752 245.53 102.672 247.13 105.232C248.73 107.728 249.53 110.832 249.53 114.544C249.53 117.552 248.954 120.112 247.802 122.224C246.65 124.272 245.274 125.904 243.674 127.12C242.138 128.336 240.698 129.168 239.354 129.616V130.096C240.89 130.544 242.522 131.312 244.25 132.4C245.978 133.488 247.45 135.12 248.666 137.296C249.946 139.408 250.586 142.288 250.586 145.936C250.586 150.096 249.562 153.68 247.514 156.688C245.53 159.696 242.65 162 238.874 163.6C235.162 165.2 230.714 166 225.53 166H199.898V97.4561H223.706ZM223.13 123.76C225.434 123.76 227.066 123.12 228.026 121.84C228.986 120.56 229.466 119.024 229.466 117.232C229.466 115.376 228.922 113.968 227.834 113.008C226.81 111.984 225.21 111.472 223.034 111.472H219.482V123.76H223.13ZM219.482 137.296V151.696H223.994C226.426 151.696 228.122 151.024 229.082 149.68C230.042 148.272 230.522 146.512 230.522 144.4C230.522 143.184 230.298 142.032 229.85 140.944C229.466 139.856 228.794 138.992 227.834 138.352C226.874 137.648 225.498 137.296 223.706 137.296H219.482Z" fill="white"/>
<path d="M147.107 151.928H165.403V165H128.523V98.4561H165.403V111.336H147.107H146.107V112.336V123.088V124.088H147.107H163.963V136.968H147.107H146.107V137.968V150.928V151.928H147.107Z" stroke="white" stroke-width="2"/>
<path d="M96.1062 122.896V98.4561H113.882V165H96.1062V138.064V137.064H95.1062H77.9222H76.9222V138.064V165H59.2422V98.4561H76.9222V122.896V123.896H77.9222H95.1062H96.1062V122.896Z" stroke="white" stroke-width="2"/>
<path d="M33.7681 112.624V165H16.1841V112.624V111.624H15.1841H1.49609V98.4561H48.4561V111.624H34.7681H33.7681V112.624Z" stroke="white" stroke-width="2"/>
<path d="M516.219 56.5974C517.138 56.5317 518.026 56.4331 518.884 56.3013C519.783 56.1728 520.498 56.0352 520.974 55.8768L521.657 55.6489V54.9281V44.1761V43.1761H520.657H510.617V30.8721H537.609V66.1267C534.487 67.2106 530.769 68.1108 526.447 68.8213L526.445 68.8217C521.892 69.5805 517.275 69.9601 512.593 69.9601C506.658 69.9601 501.383 68.7118 496.744 66.2377C492.137 63.7807 488.498 60.0305 485.831 54.9437C483.176 49.8802 481.817 43.4284 481.817 35.5361C481.817 28.4861 483.076 22.4344 485.556 17.3505C488.027 12.2846 491.692 8.40527 496.568 5.68973L496.568 5.68977L496.576 5.68501C501.445 2.9115 507.504 1.49609 514.801 1.49609C519.09 1.49609 523.081 1.90604 526.778 2.72067L526.786 2.72241L526.794 2.72403C530.104 3.39718 532.935 4.26459 535.301 5.31699L530.025 17.9617C527.788 16.9434 525.544 16.1726 523.294 15.6524C520.711 14.9914 517.943 14.6641 514.993 14.6641C511.061 14.6641 507.876 15.6317 505.586 17.7071C503.371 19.7147 501.872 22.3623 501.063 25.5976L501.061 25.6071L501.059 25.6167C500.335 28.7736 499.977 32.2418 499.977 36.0161C499.977 40.3201 500.531 44.0288 501.671 47.1147L501.675 47.1237L501.678 47.1325C502.879 50.2016 504.542 52.6068 506.701 54.2788L506.715 54.2897L506.73 54.3001C508.955 55.8995 511.497 56.6961 514.321 56.6961C514.746 56.6961 515.386 56.6615 516.219 56.5974ZM516.219 56.5974C516.218 56.5974 516.218 56.5975 516.217 56.5976L516.145 55.6001L516.222 56.5972C516.221 56.5972 516.22 56.5973 516.219 56.5974Z" stroke="white" stroke-width="2"/>
<path d="M422.939 21.7121L421.941 21.7675L421.941 21.7675L421.941 21.7676L421.941 21.7679L421.941 21.7692L421.941 21.7742L421.942 21.7945L421.947 21.8755L421.965 22.1995L422.037 23.4955L422.037 23.4988C422.102 24.5927 422.198 26.0374 422.326 27.8313C422.453 29.6083 422.548 31.5148 422.612 33.5513L422.612 33.5679L422.614 33.5844C422.74 35.5501 422.803 37.3844 422.803 39.0881V69.0001H407.523V2.45605H431.695L452.36 49.4744L452.623 50.0721H453.275H453.563H454.624L454.562 49.0133L454.562 49.0132L454.562 49.0129L454.562 49.0117L454.561 49.007L454.56 48.9878L454.556 48.9113L454.538 48.6053L454.466 47.3813C454.402 46.2901 454.306 44.8827 454.178 43.1606C454.114 41.4394 454.051 39.6228 453.987 37.7107C453.923 35.7997 453.891 34.051 453.891 32.4641V2.45605H469.267V69.0001H445.003L424.24 21.3129L423.979 20.7121H423.323H422.939H421.882L421.941 21.7675L422.939 21.7121Z" stroke="white" stroke-width="2"/>
<path d="M369.606 57.1045L370.234 56.8531V56.1761V15.1841V14.4996L369.596 14.2518L362.074 11.3316V2.45605H395.978V11.3345L388.549 14.2533L387.914 14.5025V15.1841V56.1761V56.8501L388.539 57.103L395.978 60.1141V69.0001H362.074V60.1171L369.606 57.1045Z" stroke="white" stroke-width="2"/>
<path d="M332.825 26.8961V2.45605H350.601V69.0001H332.825V42.0641V41.0641H331.825H314.641H313.641V42.0641V69.0001H295.961V2.45605H313.641V26.8961V27.8961H314.641H331.825H332.825V26.8961Z" stroke="white" stroke-width="2"/>
<path d="M255.878 20.6171L255.878 20.6171L255.872 20.6263C254.779 22.4716 253.977 24.6941 253.449 27.2712C252.92 29.8475 252.66 32.7649 252.66 36.0161C252.66 40.377 253.18 44.1116 254.252 47.1926L254.255 47.2017L254.258 47.2107C255.398 50.2943 257.067 52.709 259.3 54.3841L259.314 54.3945L259.329 54.4045C261.639 56.0146 264.44 56.7921 267.676 56.7921C270.591 56.7921 273.353 56.3615 275.957 55.4939C278.046 54.815 280.072 54.0105 282.036 53.0804V66.4829C279.47 67.6501 276.768 68.4948 273.928 69.0165L273.918 69.0183L273.908 69.0203C270.84 69.6466 267.707 69.9601 264.508 69.9601C257.406 69.9601 251.724 68.5141 247.388 65.7048C243.026 62.8785 239.828 58.9498 237.789 53.8848C235.733 48.7126 234.692 42.7306 234.692 35.9201C234.692 30.8241 235.353 26.1921 236.661 22.0155C238.033 17.7781 240.019 14.1556 242.611 11.1315C245.264 8.04654 248.47 5.67217 252.238 4.00375C256.059 2.34048 260.462 1.49609 265.468 1.49609C268.452 1.49609 271.803 1.90044 275.525 2.72067C278.892 3.46255 281.961 4.48683 284.737 5.78928L279.646 18.474C277.749 17.4761 275.824 16.6417 273.873 15.9718C271.569 15.0933 268.986 14.6641 266.14 14.6641C263.932 14.6641 261.928 15.1834 260.159 16.2434C258.458 17.2372 257.035 18.7103 255.878 20.6171Z" stroke="white" stroke-width="2"/>
<path d="M210.62 4.69063L210.625 4.69262C214.435 6.16755 217.229 8.32176 219.079 11.1267L219.079 11.1267L219.084 11.1349C220.931 13.8753 221.89 17.379 221.89 21.7121C221.89 24.3707 221.519 26.7904 220.789 28.9798L220.785 28.9918L220.781 29.0038C220.117 31.1788 219.063 33.1041 217.618 34.7893L217.612 34.7972L217.605 34.8053C216.223 36.4876 214.404 37.9806 212.124 39.2744L211.218 39.7889L211.769 40.6733L229.439 69.0001H209.583L197.189 44.5874L196.912 44.0401H196.298H193.514H192.514V45.0401V69.0001H174.93V2.45605H196.394C202.138 2.45605 206.868 3.21457 210.62 4.69063ZM193.514 14.4721H192.514V15.4721V31.1201V32.1201H193.514H196.106C197.356 32.1201 198.588 31.8249 199.795 31.2569L199.817 31.2469L199.838 31.2358C201.112 30.5613 202.135 29.5233 202.919 28.1717C203.809 26.6857 204.21 24.7945 204.21 22.5761C204.21 21.0121 203.973 19.6227 203.458 18.4412C202.932 17.17 202.091 16.1693 200.94 15.4786C199.767 14.7746 198.253 14.4721 196.49 14.4721H193.514Z" stroke="white" stroke-width="2"/>
<path d="M146.478 2.16809L166.239 69.0001H147.006L144.85 56.9598L144.702 56.1361H143.865H124.377H123.553L123.396 56.9456L121.057 69.0001H101.614L121.095 2.16809H146.478ZM134.968 13.3194H132.987C132.733 15.1579 132.416 17.0939 132.034 19.1278C131.651 21.1721 131.268 23.1522 130.885 25.068C130.503 26.9759 130.122 28.688 129.743 30.2056L129.741 30.2132L129.739 30.2209L127.051 41.7409L126.765 42.9681H128.025H140.121H141.384L141.095 41.7391L138.41 30.3275C138.088 28.7852 137.703 27.0535 137.255 25.1329C136.809 23.2231 136.364 21.2494 135.918 19.2118C135.538 17.1184 135.221 15.1544 134.968 13.3194Z" stroke="white" stroke-width="2"/>
<path d="M77.2637 55.9281H95.5597V69.0001H58.6797V2.45605H95.5597V15.3361H77.2637H76.2637V16.3361V27.0881V28.0881H77.2637H94.1197V40.9681H77.2637H76.2637V41.9681V54.9281V55.9281H77.2637Z" stroke="white" stroke-width="2"/>
<path d="M45.2048 59.2741L45.2084 59.2673C46.8632 56.0801 47.6878 52.718 47.6878 49.1681C47.6878 45.6774 47.1569 42.8552 46.1472 40.6576L46.143 40.6485L46.143 40.6485C45.1201 38.3619 43.6173 36.4061 41.6226 34.774C39.5902 33.1112 37.0752 31.5856 34.0632 30.2052L34.0512 30.1997L34.0394 30.1939C30.6466 28.5295 27.988 27.2162 26.0646 26.2545L26.0465 26.2455L26.0288 26.2357C24.1457 25.1968 22.72 24.2066 21.841 23.2544L21.8264 23.2385L21.8125 23.222C20.956 22.2098 20.5198 21.0211 20.5198 19.6961C20.5198 18.7113 20.7474 17.7995 21.2279 16.9911C21.7295 16.0814 22.5093 15.4057 23.5008 14.9481C24.5108 14.482 25.7572 14.2801 27.1838 14.2801C29.5407 14.2801 32.1936 14.7165 35.1314 15.5645C37.7137 16.2538 40.1734 17.17 42.5092 18.3139L47.6151 5.84201C45.5816 4.78684 43.0111 3.83537 39.8851 2.99804L39.8748 2.99528L39.8645 2.99229C36.4572 2.00109 32.4273 1.49609 27.7598 1.49609C22.8694 1.49609 18.5834 2.2485 14.8832 3.72857L14.8765 3.73125L14.8698 3.73384C11.1896 5.14456 8.31089 7.27512 6.19498 10.1159C4.17134 12.8545 3.12784 16.3136 3.12784 20.5601C3.12784 23.4409 3.40989 25.9099 3.95758 27.9806C4.50289 29.9784 5.34497 31.7148 6.47601 33.203C7.60934 34.6942 9.11578 36.0572 11.0159 37.2839C13.0064 38.5274 15.418 39.7504 18.2587 40.9499L45.2048 59.2741ZM45.2048 59.2741L45.2014 59.2809C43.6443 62.3952 41.0553 64.9771 37.3639 67.0086C33.7203 68.9503 28.8143 69.9601 22.5758 69.9601C19.276 69.9601 16.5091 69.8012 14.2654 69.4896L14.2534 69.4879L14.2414 69.4866C12.0633 69.2376 10.0877 68.8038 8.30983 68.1907C6.65185 67.619 4.82892 66.8879 2.83984 65.9953V51.7254L45.2048 59.2741Z" stroke="white" stroke-width="2"/>
</svg>
