<svg width="480" height="473" viewBox="0 0 480 473" fill="none" xmlns="http://www.w3.org/2000/svg">
<path d="M182.563 82.5895L268.588 231.589L356.608 299.514M383.58 165.484C436.346 256.879 427.627 360.699 364.105 397.374C300.583 434.048 206.312 389.689 153.545 298.295C100.779 206.9 109.498 103.08 173.02 66.4053C236.543 29.7307 330.813 74.0898 383.58 165.484Z" stroke="#FEDC97" stroke-width="1.08417"/>
<path d="M347.842 406.047C411.364 369.372 420.084 265.552 367.317 174.157C314.551 82.7632 220.28 38.4041 156.758 75.0787C93.2352 111.753 84.516 215.574 137.283 306.968C190.049 398.362 284.32 442.721 347.842 406.047Z" stroke="white" stroke-width="1.08417"/>
<path d="M293.326 218.932C336.689 294.039 329.524 379.357 277.322 409.496C225.12 439.635 147.649 403.181 104.286 328.074C60.9231 252.967 68.0886 167.649 120.291 137.51C172.492 107.371 249.963 143.825 293.326 218.932Z" stroke="#828282" stroke-width="0.542084"/>
<path d="M207.472 261.574C241.097 319.815 235.541 385.974 195.062 409.344C154.583 432.715 94.5091 404.448 60.8838 346.207C27.2586 287.966 32.8149 221.807 73.2942 198.437C113.773 175.066 173.847 203.334 207.472 261.574Z" stroke="#828282" stroke-width="0.542084"/>
<path d="M157.747 305.193L42.5537 419.844L61.2556 444.238L171.841 327.148" stroke="white" stroke-width="1.08417"/>
<path d="M138.502 308.988L23.3096 423.639L42.0115 448.032L54.7504 435.293" stroke="white" stroke-width="1.08417"/>
</svg>
