<svg width="29" height="29" viewBox="0 0 29 29" fill="none" xmlns="http://www.w3.org/2000/svg">
<path d="M24.65 6.525C24.65 7.72622 23.6762 8.7 22.475 8.7C21.2738 8.7 20.3 7.72622 20.3 6.525C20.3 5.32378 21.2738 4.35 22.475 4.35C23.6762 4.35 24.65 5.32378 24.65 6.525Z" fill="white"/>
<path fill-rule="evenodd" clip-rule="evenodd" d="M14.5 21.75C18.5041 21.75 21.75 18.5041 21.75 14.5C21.75 10.4959 18.5041 7.25 14.5 7.25C10.4959 7.25 7.25 10.4959 7.25 14.5C7.25 18.5041 10.4959 21.75 14.5 21.75ZM14.5 18.85C16.9024 18.85 18.85 16.9024 18.85 14.5C18.85 12.0976 16.9024 10.15 14.5 10.15C12.0976 10.15 10.15 12.0976 10.15 14.5C10.15 16.9024 12.0976 18.85 14.5 18.85Z" fill="white"/>
<path fill-rule="evenodd" clip-rule="evenodd" d="M0 13.92C0 9.04754 0 6.61131 0.948243 4.75028C1.78234 3.11327 3.11327 1.78234 4.75028 0.948243C6.61131 0 9.04754 0 13.92 0H15.08C19.9525 0 22.3887 0 24.2497 0.948243C25.8867 1.78234 27.2177 3.11327 28.0518 4.75028C29 6.61131 29 9.04754 29 13.92V15.08C29 19.9525 29 22.3887 28.0518 24.2497C27.2177 25.8867 25.8867 27.2177 24.2497 28.0518C22.3887 29 19.9525 29 15.08 29H13.92C9.04754 29 6.61131 29 4.75028 28.0518C3.11327 27.2177 1.78234 25.8867 0.948243 24.2497C0 22.3887 0 19.9525 0 15.08V13.92ZM13.92 2.9H15.08C17.5641 2.9 19.2527 2.90226 20.558 3.0089C21.8294 3.11278 22.4796 3.30106 22.9331 3.53216C24.0245 4.08823 24.9118 4.97551 25.4678 6.06686C25.6989 6.52041 25.8872 7.17061 25.9911 8.44201C26.0977 9.74727 26.1 11.4359 26.1 13.92V15.08C26.1 17.5641 26.0977 19.2527 25.9911 20.558C25.8872 21.8294 25.6989 22.4796 25.4678 22.9331C24.9118 24.0245 24.0245 24.9118 22.9331 25.4678C22.4796 25.6989 21.8294 25.8872 20.558 25.9911C19.2527 26.0977 17.5641 26.1 15.08 26.1H13.92C11.4359 26.1 9.74727 26.0977 8.44201 25.9911C7.17061 25.8872 6.52041 25.6989 6.06686 25.4678C4.97551 24.9118 4.08823 24.0245 3.53216 22.9331C3.30106 22.4796 3.11278 21.8294 3.0089 20.558C2.90226 19.2527 2.9 17.5641 2.9 15.08V13.92C2.9 11.4359 2.90226 9.74727 3.0089 8.44201C3.11278 7.17061 3.30106 6.52041 3.53216 6.06686C4.08823 4.97551 4.97551 4.08823 6.06686 3.53216C6.52041 3.30106 7.17061 3.11278 8.44201 3.0089C9.74727 2.90226 11.4359 2.9 13.92 2.9Z" fill="white"/>
</svg>
