<svg width="202" height="81" viewBox="0 0 202 81" fill="none" xmlns="http://www.w3.org/2000/svg">
<path fill-rule="evenodd" clip-rule="evenodd" d="M68.7729 1.68164C68.7717 3.1459 68.45 3.38731 65.2473 4.32891C61.2992 5.48907 57.725 8.31446 56.2361 11.4522C54.5504 15.0041 54.752 15.1799 59.5449 14.3391C61.8816 13.9289 64.6502 13.5832 65.6973 13.5703L67.6016 13.5469V19.367C67.6016 24.5889 67.4861 25.2234 66.4777 25.5434C60.8182 27.3398 59.6844 35.2582 64.6121 38.574C68.3064 41.0607 74.0586 39.7037 75.7725 35.942C77.2777 32.6379 75.7807 27.4066 72.8856 25.8574C71.7541 25.2516 71.6738 24.7734 71.8285 19.5211L71.9961 13.8398L75.8047 13.9588C77.8994 14.0244 80.7336 14.4744 82.1035 14.9584C84.4936 15.8033 84.5938 15.7916 84.5938 14.673C84.5938 12.5109 81.7959 7.93828 79.5137 6.37031C78.2797 5.52246 76.0174 4.51758 74.4863 4.13789C71.9697 3.51328 71.7031 3.28476 71.7031 1.7584C71.7031 0.348631 71.4617 0.0703125 70.2383 0.0703125C69.0312 0.0703125 68.7734 0.353906 68.7729 1.68164ZM0.21875 50.4141V80.3438H6.95703H13.6953L13.6982 77.2676C13.6994 75.576 13.8717 71.2254 14.0803 67.5996L14.4605 61.0078H20.4951H26.5303L31.6361 68.4785C34.4445 72.5871 37.6391 77.0701 38.7348 78.4395L40.727 80.9297H47.3914C51.057 80.9297 54.1748 80.7322 54.3195 80.4902C54.541 80.1217 51.8404 76.3096 40.0818 60.3932L38.9779 58.899L41.8232 57.5484C50.4072 53.4732 54.4156 44.0725 51.6072 34.6037C49.8359 28.6318 46.1727 24.8531 39.6418 22.2615C36.4186 20.9824 35.3797 20.9062 18.2363 20.7006L0.21875 20.485V50.4141ZM151.195 20.9689C150.98 21.1834 150.805 23.4246 150.805 25.9494V30.5391H168.138H185.472L183.339 33.0293C182.166 34.3992 176.429 41.2916 170.588 48.3463C164.748 55.401 157.644 63.8326 154.801 67.0834L149.633 72.9943V76.6693V80.3438H175.707H201.781V75.3633V70.3828H185.082C175.897 70.3828 168.383 70.1748 168.383 69.9199C168.383 69.6656 169.286 68.4135 170.39 67.1367C172.651 64.5211 188.713 44.9531 192.897 39.7166C194.399 37.8352 195.894 35.9894 196.217 35.615C201.738 29.2248 201.781 29.1416 201.781 24.7447V20.5781H176.684C162.88 20.5781 151.41 20.7539 151.195 20.9689ZM89.2812 25.8428V30.5215L106.5 30.6768L123.719 30.832L116.022 39.9539C111.788 44.9707 104.726 53.54 100.328 58.9969C95.9299 64.4537 91.5207 69.709 90.5299 70.6758C88.8811 72.2842 88.7264 72.7635 88.7117 76.3102L88.6953 80.1867L114.238 80.6209C130.232 80.8928 139.989 80.8465 140.339 80.4973C140.645 80.1908 140.819 77.8553 140.724 75.3076L140.551 70.6758L123.998 70.5199C114.894 70.4344 107.448 70.1707 107.451 69.934C107.455 69.6973 112.225 63.5713 118.053 56.3203C123.88 49.0693 131.016 40.1707 133.91 36.5449C136.804 32.9197 139.549 29.9531 140.008 29.9531C140.657 29.9531 140.844 28.9729 140.844 25.5586V21.1641H115.062H89.2812V25.8428ZM14.0861 30.9299C13.5523 31.4631 13.6057 48.2496 14.1436 49.0547C15.2475 50.7076 17.5174 51.1453 24.6781 51.085C30.5539 51.0357 32.5467 50.7979 34.5687 49.9031C42.415 46.4326 41.4359 33.7125 33.1314 31.224C30.7232 30.5027 14.76 30.2561 14.0861 30.9299ZM62.4564 47.3848C62.2244 47.949 62.0352 55.6611 62.0352 64.5234V80.6367H68.7734H75.5117L75.6676 64.302C75.7777 52.7397 75.6283 47.7322 75.1566 47.1633C74.6732 46.5809 72.8885 46.3594 68.6832 46.3594C63.7051 46.3594 62.8174 46.5053 62.4564 47.3848Z" fill="white"/>
</svg>
