<svg width="455" height="590" viewBox="0 0 455 590" fill="none" xmlns="http://www.w3.org/2000/svg">
<path d="M97.0843 106.429C259.014 -8.93063 466.603 183.831 348.296 354.824" stroke="white" stroke-width="0.5" stroke-linecap="round"/>
<path d="M51.5339 209.949C17.2447 319.872 111.462 430.81 228.779 418.638" stroke="white" stroke-width="0.5" stroke-linecap="round"/>
<path d="M37.334 162.912C58.4701 158.426 64.6852 151.006 65.6209 128.937" stroke="#FFEBC4" stroke-linecap="round" stroke-linejoin="round"/>
<path d="M93.8018 162.804C72.7454 158.333 66.5538 150.937 65.6216 128.937" stroke="#FFEBC4" stroke-linecap="round" stroke-linejoin="round"/>
<path d="M37.2275 162.804C58.4435 167.304 64.6819 174.747 65.6212 196.887" stroke="#FFEBC4" stroke-linecap="round" stroke-linejoin="round"/>
<path d="M94.0146 162.804C72.7987 167.304 66.5602 174.747 65.621 196.887" stroke="#FFEBC4" stroke-linecap="round" stroke-linejoin="round"/>
<path d="M251.809 377.067C315.341 355.544 346.397 280.256 321.173 208.908C295.949 137.56 223.998 97.1693 160.466 118.693C96.933 140.217 65.8775 215.504 91.1012 286.852C116.325 358.2 188.276 398.591 251.809 377.067Z" stroke="white"/>
<path d="M116.364 290.076C178.304 245.069 187.467 212.531 157.767 141.338" stroke="#FFEBC4" stroke-linecap="round" stroke-linejoin="round"/>
<path d="M299.445 207.415C224.479 223.968 193.414 209.592 157.756 141.343" stroke="#FFEBC4" stroke-linecap="round" stroke-linejoin="round"/>
<path d="M115.859 289.893C191.385 273.197 222.671 287.653 258.559 356.333" stroke="#FFEBC4" stroke-linecap="round" stroke-linejoin="round"/>
<path d="M300.139 207.103C237.962 252.271 228.757 284.918 258.549 356.336" stroke="#FFEBC4" stroke-linecap="round" stroke-linejoin="round"/>
<line x1="290.699" y1="355.874" x2="370.885" y2="527.342" stroke="white"/>
<path d="M260.591 394.575L346.123 577.474" stroke="white"/>
<path d="M352.094 587.94C363.431 588.225 386.107 582.51 386.119 557.366" stroke="white" stroke-linecap="round"/>
<path d="M45.6279 364.521V557.213H302.2" stroke="white" stroke-linecap="round"/>
<path d="M329.227 73.5518H407.497V492.982" stroke="white" stroke-linecap="round"/>
</svg>
