<svg width="739" height="556" viewBox="0 0 739 556" fill="none" xmlns="http://www.w3.org/2000/svg">
<path d="M86.6308 178.248L121.266 228.655L118.618 231.804L67.6212 209.99L97.7037 256.678L95.1636 259.699L39.7213 234.037L42.3154 230.952L92.4655 254.688L61.825 207.749L64.5271 204.536L116.177 227.009L83.9827 181.397L86.6308 178.248Z" fill="#033F63"/>
<path d="M562.653 152.859C601.1 133.325 609.266 115.865 599.714 72.9985" stroke="#033F63" stroke-width="2.26648" stroke-linecap="round" stroke-linejoin="round"/>
<path d="M671.478 123.479C628.576 125.771 612.832 114.766 599.714 72.9986" stroke="#033F63" stroke-width="2.26648" stroke-linecap="round" stroke-linejoin="round"/>
<path d="M562.392 152.709C605.616 150.388 621.475 161.459 634.679 203.49" stroke="#033F63" stroke-width="2.26648" stroke-linecap="round" stroke-linejoin="round"/>
<path d="M671.89 123.368C633.297 142.971 625.098 160.488 634.679 203.49" stroke="#033F63" stroke-width="2.26648" stroke-linecap="round" stroke-linejoin="round"/>
<path d="M550.451 218.049C569.819 208.209 573.932 199.413 569.12 177.819" stroke="#033F63" stroke-width="2.26648" stroke-linecap="round" stroke-linejoin="round"/>
<path d="M605.272 203.249C583.66 204.404 575.729 198.859 569.12 177.819" stroke="#033F63" stroke-width="2.26648" stroke-linecap="round" stroke-linejoin="round"/>
<path d="M550.32 217.973C572.094 216.804 580.083 222.381 586.735 243.555" stroke="#033F63" stroke-width="2.26648" stroke-linecap="round" stroke-linejoin="round"/>
<path d="M605.48 203.193C586.038 213.068 581.908 221.892 586.734 243.555" stroke="#033F63" stroke-width="2.26648" stroke-linecap="round" stroke-linejoin="round"/>
<path fill-rule="evenodd" clip-rule="evenodd" d="M512.161 253.977L550.037 194.578L539.638 155.766L435.914 183.558L446.911 224.602L494.2 211.931L458.555 270.732L468.954 309.544L575.578 280.975L564.58 239.931L512.161 253.977ZM517.207 250.279L552.485 194.956L541.24 152.99L433.138 181.956L445.309 227.378L489.338 215.58L456.115 270.384L467.352 312.32L578.354 282.577L566.183 237.156L517.207 250.279Z" fill="#033F63"/>
<path fill-rule="evenodd" clip-rule="evenodd" d="M396.709 284.912L434.585 225.514L424.185 186.701L320.462 214.494L331.459 255.537L378.748 242.866L343.102 301.667L353.502 340.48L460.126 311.91L449.128 270.867L396.709 284.912ZM401.755 281.214L437.033 225.891L425.788 183.925L317.686 212.891L329.857 258.313L373.886 246.515L340.663 301.319L351.9 343.256L462.902 313.513L450.731 268.091L401.755 281.214Z" fill="#033F63"/>
<path fill-rule="evenodd" clip-rule="evenodd" d="M305.722 216.097L340.605 346.282L286.707 360.724L251.824 230.539L305.722 216.097ZM277.48 217.599C268.453 220.017 260.33 219.599 253.283 216.081C246.259 212.574 241.677 206.945 239.637 199.333C237.563 191.593 238.681 184.355 243.011 177.797C247.311 171.074 254.12 166.568 263.157 164.146C272.057 161.762 280.13 162.287 287.207 165.955C294.235 169.47 298.822 175.179 300.896 182.918C302.936 190.53 301.782 197.697 297.453 204.246C293.114 210.808 286.368 215.217 277.48 217.599ZM286.178 167.975C279.698 164.611 272.22 164.064 263.744 166.336C255.119 168.647 248.841 172.879 244.912 179.032C240.942 185.037 239.914 191.608 241.826 198.746C243.699 205.735 247.855 210.838 254.295 214.053C260.735 217.268 268.268 217.72 276.893 215.409C285.369 213.138 291.592 209 295.562 202.996C299.531 196.991 300.58 190.494 298.707 183.505C296.794 176.367 292.618 171.19 286.178 167.975ZM304.119 218.872L254.6 232.141L288.31 357.948L337.829 344.679L304.119 218.872Z" fill="#033F63"/>
<path fill-rule="evenodd" clip-rule="evenodd" d="M218.286 376.711L272.713 362.127L222.164 310.882C222.815 310.46 223.453 310.03 224.077 309.594C233.083 303.304 239.274 295.608 242.648 286.506C246.405 276.733 246.869 266.568 244.04 256.01C241.41 246.195 236.754 238.039 230.072 231.541C223.499 224.855 215.079 220.497 204.812 218.466C194.506 216.287 182.958 216.911 170.169 220.337L96.5591 240.061L138.876 397.989L188.395 384.72L173.214 328.062L173.437 328.003L218.286 376.711ZM177.674 335.95L217.547 379.255L277.061 363.309L225.691 311.23C234.848 304.757 241.251 296.787 244.768 287.307C248.7 277.07 249.175 266.418 246.229 255.423C243.505 245.259 238.661 236.739 231.67 229.934C224.747 222.899 215.911 218.353 205.267 216.246C194.537 213.98 182.624 214.654 169.583 218.148L93.7832 238.458L137.273 400.765L191.171 386.323L177.674 335.95ZM183.998 289.79L164.368 295.049L157.196 268.282L176.825 263.022C181.435 261.787 185.249 262.04 188.265 263.782C191.431 265.484 193.572 268.417 194.687 272.581C195.923 277.191 195.649 280.93 193.868 283.798C192.046 286.517 188.756 288.514 183.998 289.79ZM191.963 282.569C190.563 284.636 187.875 286.404 183.411 287.6L165.971 292.273L159.972 269.884L177.412 265.211C181.661 264.073 184.805 264.401 187.132 265.745L187.162 265.762L187.192 265.778C189.699 267.126 191.509 269.477 192.498 273.167C193.634 277.406 193.28 280.424 191.963 282.569Z" fill="#033F63"/>
<mask id="mask0_392_22549" style="mask-type:alpha" maskUnits="userSpaceOnUse" x="96" y="155" width="480" height="243">
<path d="M512.16 253.977L564.58 239.931L575.577 280.975L468.954 309.544L458.554 270.732L494.2 211.931L446.911 224.602L435.913 183.558L539.637 155.766L550.037 194.578L512.16 253.977Z" fill="#033F63"/>
<path d="M396.708 284.912L449.128 270.866L460.125 311.91L353.502 340.479L343.102 301.667L378.748 242.866L331.459 255.537L320.461 214.493L424.185 186.701L434.585 225.513L396.708 284.912Z" fill="#033F63"/>
<path d="M276.893 215.409C268.267 217.72 260.735 217.268 254.295 214.053C247.855 210.838 243.699 205.735 241.826 198.746C239.913 191.608 240.942 185.037 244.911 179.032C248.841 172.879 255.118 168.647 263.743 166.336C272.22 164.064 279.698 164.611 286.178 167.975C292.618 171.19 296.794 176.367 298.707 183.505C300.579 190.494 299.531 196.991 295.561 202.996C291.592 209 285.369 213.138 276.893 215.409ZM304.119 218.872L337.829 344.679L288.309 357.948L254.599 232.141L304.119 218.872Z" fill="#033F63"/>
<path d="M218.285 376.711L173.437 328.003L173.214 328.062L188.395 384.72L138.875 397.989L96.5586 240.061L170.169 220.337C182.958 216.91 194.505 216.287 204.812 218.466C215.078 220.497 223.498 224.855 230.071 231.541C236.753 238.039 241.409 246.195 244.039 256.01C246.868 266.568 246.404 276.733 242.647 286.506C239.039 296.239 232.211 304.364 222.163 310.882L272.712 362.127L218.285 376.711ZM164.368 295.049L183.997 289.789C188.756 288.514 192.046 286.517 193.867 283.798C195.649 280.93 195.922 277.19 194.687 272.581C193.571 268.417 191.431 265.484 188.265 263.782C185.248 262.04 181.435 261.787 176.825 263.022L157.195 268.282L164.368 295.049Z" fill="#033F63"/>
</mask>
<g mask="url(#mask0_392_22549)">
<path d="M323.388 267.02C352.474 272.686 425.606 295.238 485.441 340.114L97.307 429.073L41.7783 204.692C54.9994 212.247 86.4279 229.283 106.373 236.989C109.9 238.352 112.546 239.38 114.475 240.137C130.754 244.673 170.044 252.288 219.697 252.288C236.884 252.854 281.685 256.594 323.388 267.02Z" fill="#033F63"/>
</g>
</svg>
